<svg width="23" height="23" viewBox="0 0 23 23" fill="none" xmlns="http://www.w3.org/2000/svg">
<path fill-rule="evenodd" clip-rule="evenodd" d="M20.3664 10.4239C20.2534 11.0519 19.6964 11.5129 19.0364 11.5009H17.3664V2.50088H19.0544C19.6964 2.45188 20.2524 2.94788 20.3664 3.57688V10.4239ZM15.3664 12.2879L11.7584 20.4059C10.9514 20.1479 10.3664 19.3909 10.3664 18.5009V14.5009C10.3664 13.9479 9.91841 13.5009 9.36641 13.5009H3.69741C3.65141 13.4979 3.59041 13.4989 3.53341 13.4899C2.98841 13.4069 2.61241 12.8959 2.69441 12.3519L4.07541 3.35088C4.14941 2.86088 4.60141 2.52188 5.08641 2.50088H15.3664V12.2879ZM22.3574 3.36588C22.1354 1.72288 20.7304 0.499878 19.0944 0.499878C19.0754 0.499878 19.0554 0.499878 19.0364 0.500878H5.09741C3.61041 0.510878 2.32041 1.58088 2.09841 3.04888L0.717409 12.0509C0.470409 13.6859 1.59841 15.2179 3.23041 15.4659C3.39041 15.4909 3.55341 15.5029 3.70641 15.5009H8.36641V18.5009C8.36641 20.7069 10.1604 22.5009 12.3664 22.5009C12.7624 22.5009 13.1194 22.2679 13.2804 21.9069L17.0154 13.5009H19.0184C20.6884 13.5059 22.1324 12.2979 22.3574 10.6349C22.3634 10.5909 22.3664 10.5459 22.3664 10.5009V3.50088C22.3664 3.45588 22.3634 3.41088 22.3574 3.36588Z" fill="#313037"/>
</svg>
