<svg version="1.1" xmlns="http://www.w3.org/2000/svg" xmlns:xlink="http://www.w3.org/1999/xlink" width="22" height="23" viewBox="0,0,244.85938,256"><g fill="#ffffff" fill-rule="evenodd" stroke="none" stroke-width="1" stroke-linecap="butt" stroke-linejoin="miter" stroke-miterlimit="10" stroke-dasharray="" stroke-dashoffset="0" font-family="none" font-weight="none" font-size="none" text-anchor="none" style="mix-blend-mode: normal"><g transform="translate(1.75694,0) scale(11.13043,11.13043)"><path d="M18.292,19.65c-0.074,0.486 -0.498,0.85 -1,0.85h-0.012h-10.28v-9.788l3.608,-8.118c0.807,0.258 1.392,1.014 1.392,1.906v4c0,0.552 0.447,1 1,1h5.674c0.054,0.002 0.106,0.003 0.158,0.011c0.265,0.04 0.498,0.181 0.656,0.396c0.158,0.215 0.224,0.478 0.184,0.741zM5,20.5h-2c-0.551,0 -1,-0.449 -1,-1v-7c0,-0.552 0.449,-1 1,-1h2zM21.099,8.72c-0.476,-0.645 -1.174,-1.066 -1.967,-1.187c-0.16,-0.024 -0.318,-0.029 -0.472,-0.033h-4.66v-3c0,-2.206 -1.794,-4 -4,-4c-0.395,0 -0.753,0.233 -0.914,0.593l-3.736,8.407h-2.35c-1.654,0 -3,1.345 -3,3v7c0,1.654 1.346,3 3,3h14.269h0.035c1.472,0 2.744,-1.091 2.965,-2.549l1.379,-9.001c0.122,-0.793 -0.074,-1.584 -0.549,-2.23z"></path></g></g></svg>